<?xml version="1.0" encoding="utf-8"?>
<svg xmlns="http://www.w3.org/2000/svg" xmlns:xlink="http://www.w3.org/1999/xlink" style="margin: auto; background: none; display: block; shape-rendering: auto;" width="210px" height="210px" viewBox="0 0 100 100" preserveAspectRatio="xMidYMid">
<g transform="translate(50 50)">
<g>
<animateTransform attributeName="transform" type="rotate" values="0;40" keyTimes="0;1" dur="1.2195121951219512s" repeatCount="indefinite"></animateTransform><path d="M25.937424698685874 -7.5 L39.937424698685874 -7.5 L39.937424698685874 7.5 L25.937424698685874 7.5 A27 27 0 0 1 24.690127131894293 10.926921900100563 L24.690127131894293 10.926921900100563 L35.41474933555999 19.925948435712115 L25.77293519026189 31.41661508249679 L15.0483129865962 22.417588546885238 A27 27 0 0 1 11.890044679891593 24.241015603934205 L11.890044679891593 24.241015603934205 L14.32111916722862 38.02832414610512 L-0.4509971279545 40.63304681110907 L-2.8820716152915256 26.84573826893816 A27 27 0 0 1 -6.4735218209596415 26.212468697807907 L-6.4735218209596415 26.212468697807907 L-13.47352182095964 38.33682435079005 L-26.46390287772622 30.83682435079005 L-19.463902877726223 18.712468697807907 A27 27 0 0 1 -21.80805551660276 15.918816368837602 L-21.80805551660276 15.918816368837602 L-34.96375220760548 20.707098375396967 L-40.094054357490506 6.611709063608333 L-26.938357666487793 1.823427057048969 A27 27 0 0 1 -26.938357666487796 -1.8234270570489624 L-26.938357666487796 -1.8234270570489624 L-40.09405435749051 -6.611709063608324 L-34.96375220760548 -20.70709837539696 L-21.808055516602764 -15.918816368837598 A27 27 0 0 1 -19.46390287772624 -18.712468697807896 L-19.46390287772624 -18.712468697807896 L-26.463902877726248 -30.83682435079003 L-13.473521820959673 -38.33682435079004 L-6.473521820959665 -26.2124686978079 A27 27 0 0 1 -2.8820716152915318 -26.84573826893816 L-2.8820716152915318 -26.84573826893816 L-0.4509971279545124 -40.633046811109075 L14.321119167228597 -38.02832414610513 L11.890044679891577 -24.241015603934216 A27 27 0 0 1 15.0483129865962 -22.417588546885238 L15.0483129865962 -22.417588546885238 L25.77293519026189 -31.41661508249679 L35.414749335559975 -19.92594843571213 L24.690127131894286 -10.926921900100579 A27 27 0 0 1 25.937424698685874 -7.5 M0 -17A17 17 0 1 0 0 17 A17 17 0 1 0 0 -17" fill="currentColor"></path></g></g>
<!-- [ldio] generated by https://loading.io/ --></svg>