<svg id="Capa_1" data-name="Capa 1" xmlns="http://www.w3.org/2000/svg" viewBox="0 0 192 192"><defs><style>.cls-1{fill:#333;}.cls-2,.cls-5{fill:#fff;}.cls-3{fill:#2ea9e1;}.cls-4{fill:#ec7844;}.cls-4,.cls-5{fill-rule:evenodd;}</style></defs><rect class="cls-1" x="-0.03" y="0.01" width="192.88" height="192.49" rx="78.36"/><path class="cls-2" d="M75.68,18.44h9.74V43h5.76V18.44h9.74V77H91.18V52.39H85.42V77H75.68Z"/><path class="cls-2" d="M107.76,31.82h7.49v45h-7.49Z"/><path class="cls-3" d="M74.8,80.65h9.27q8.49,0,8.48,9.29v6.63q0,5.84-5,7.68l7.15,20.54h-7L82,105.37l-.81.11v19.31H74.8Zm6.37,6.27V99.57h1.46a6.1,6.1,0,0,0,1.82-.18,2.75,2.75,0,0,0,1.74-2.82V89.94c0-2-.93-3-2.77-3Z"/><path class="cls-3" d="M116.13,116.21q0,9.27-9.16,9.3t-9.13-9.3v-27Q97.84,80,107,80t9.16,9.27Zm-6.37-27q0-3-2.76-3h0c-1.83,0-2.74,1-2.74,3v27q0,3,2.76,3t2.79-3Z"/><path class="cls-2" d="M88.66,159.26,96.06,129h6.37v44.14h-6.1V148.4l-5.44,24.77H86.57L81,148.4v24.77H74.8V129h6.37Z"/><path class="cls-2" d="M108.39,129h6.37v44.14h-6.37Z"/><path class="cls-2" d="M75.35,181.53a2.26,2.26,0,0,1-.78-.36l.34-.76a2.21,2.21,0,0,0,.67.33,2.59,2.59,0,0,0,.77.13,1.3,1.3,0,0,0,.64-.13.4.4,0,0,0,.2-.34.34.34,0,0,0-.12-.26.91.91,0,0,0-.31-.16l-.51-.14a6.59,6.59,0,0,1-.82-.24,1.27,1.27,0,0,1-.54-.38,1,1,0,0,1-.23-.69,1.27,1.27,0,0,1,.2-.69,1.4,1.4,0,0,1,.62-.49,2.57,2.57,0,0,1,1-.18,3.23,3.23,0,0,1,.82.1,2.45,2.45,0,0,1,.7.29l-.32.76a2.38,2.38,0,0,0-1.2-.34,1.18,1.18,0,0,0-.63.14.42.42,0,0,0-.2.36.35.35,0,0,0,.23.33,4.1,4.1,0,0,0,.72.21,6.91,6.91,0,0,1,.81.24,1.45,1.45,0,0,1,.55.37,1,1,0,0,1,.22.69A1.22,1.22,0,0,1,78,181a1.4,1.4,0,0,1-.62.48,2.59,2.59,0,0,1-1,.18A3.29,3.29,0,0,1,75.35,181.53Z"/><path class="cls-2" d="M80.24,181.16a2,2,0,0,1-.52-1.48v-2.43h1v2.4c0,.78.33,1.17,1,1.17a.93.93,0,0,0,.73-.29,1.34,1.34,0,0,0,.24-.88v-2.4h1v2.43a1.79,1.79,0,0,1-2,2A2,2,0,0,1,80.24,181.16Z"/><path class="cls-2" d="M86,181.53a2.36,2.36,0,0,1-.78-.36l.35-.76a2,2,0,0,0,.66.33,2.65,2.65,0,0,0,.77.13,1.3,1.3,0,0,0,.64-.13.4.4,0,0,0,.2-.34.34.34,0,0,0-.12-.26.82.82,0,0,0-.31-.16l-.51-.14a7.15,7.15,0,0,1-.82-.24,1.27,1.27,0,0,1-.54-.38,1,1,0,0,1-.23-.69,1.2,1.2,0,0,1,.21-.69,1.32,1.32,0,0,1,.61-.49,2.59,2.59,0,0,1,1-.18,3.15,3.15,0,0,1,.81.1,2.34,2.34,0,0,1,.7.29l-.31.76A2.44,2.44,0,0,0,87.1,178a1.18,1.18,0,0,0-.63.14.42.42,0,0,0-.2.36.35.35,0,0,0,.24.33,3.7,3.7,0,0,0,.71.21,6.91,6.91,0,0,1,.81.24,1.37,1.37,0,0,1,.55.37,1,1,0,0,1,.22.69,1.29,1.29,0,0,1-.2.69,1.43,1.43,0,0,1-.63.48,2.57,2.57,0,0,1-1,.18A3.31,3.31,0,0,1,86,181.53Z"/><path class="cls-2" d="M94.36,177.25v4.35h-1v-1.79h-2v1.79h-1v-4.35h1V179h2v-1.71Z"/><path class="cls-2" d="M96.26,177.25h1v4.35h-1Z"/><path class="cls-2" d="M102.77,179.72a1.07,1.07,0,0,1,.23.72,1,1,0,0,1-.41.86,2.05,2.05,0,0,1-1.22.3h-2v-4.35h1.87a1.83,1.83,0,0,1,1.13.29,1,1,0,0,1,.4.83,1,1,0,0,1-.66,1A1.22,1.22,0,0,1,102.77,179.72Zm-2.94-2.09v1.58h1.38A1.36,1.36,0,0,0,102,179a.75.75,0,0,0,0-1.17,1.36,1.36,0,0,0-.82-.2Zm2.42,3.39a.7.7,0,0,0,.29-.62c0-.54-.39-.82-1.18-.82H99.83v1.64h1.53A1.65,1.65,0,0,0,102.25,181Z"/><path class="cls-2" d="M107.66,180.44h-2.43l-.52,1.16h-.48l2-4.35h.45l2,4.35h-.48Zm-.17-.38-1-2.34-1,2.34Z"/><path class="cls-2" d="M113.23,181.6l-1-1.4-.35,0h-1.17v1.38h-.46v-4.35h1.63a2,2,0,0,1,1.3.39,1.35,1.35,0,0,1,.48,1.1,1.42,1.42,0,0,1-.26.86,1.5,1.5,0,0,1-.74.51l1.06,1.49Zm-.37-2.06a1.1,1.1,0,0,0,0-1.61,1.48,1.48,0,0,0-1-.29h-1.15v2.19h1.15A1.48,1.48,0,0,0,112.86,179.54Z"/><path class="cls-4" d="M107.46,22.45A4.69,4.69,0,0,1,114,16.63l-.34,0A7,7,0,0,0,110.15,18a7,7,0,0,0-2.28,3,7.78,7.78,0,0,0-.41,1.45m9-.94a4.74,4.74,0,0,1-1.32,2.6A4.66,4.66,0,0,1,111,25.4a6.28,6.28,0,0,1,5.16-3.86Zm-.14-2.05a4.72,4.72,0,0,1,.19,1.34,3,3,0,0,0-.42,0,7,7,0,0,0-5.75,4.34l0,0a4.81,4.81,0,0,1-1-.44,7,7,0,0,1,.39-1.43,6.29,6.29,0,0,1,5.17-3.9A6.46,6.46,0,0,1,116.33,19.46Zm-1.18-2a4.59,4.59,0,0,1,.89,1.23,6.52,6.52,0,0,0-1.17,0,7,7,0,0,0-5.76,4.34,7.46,7.46,0,0,0-.37,1.22l-.2-.19a5.62,5.62,0,0,1-.46-.53,6.11,6.11,0,0,1,.46-2.32,6.27,6.27,0,0,1,5.16-3.89,5.91,5.91,0,0,1,1.33,0Z"/><path class="cls-2" d="M118.3,18.82l-4.47-4.48a2.81,2.81,0,0,0-4,0l-4.47,4.48a2.8,2.8,0,0,0,0,4l4.47,4.48a2.84,2.84,0,0,0,4,0l4.47-4.48a2.8,2.8,0,0,0,0-4m-3.47-5.49,4.48,4.48a4.22,4.22,0,0,1,0,6l-4.48,4.48a4.25,4.25,0,0,1-6,0l-4.47-4.48a4.22,4.22,0,0,1,0-6l4.47-4.48a4.25,4.25,0,0,1,6,0Z"/><polygon class="cls-5" points="116.68 30.5 135.71 13.77 134.04 12.02 116.14 29.96 116.68 30.5"/><polygon class="cls-5" points="121.47 30.67 129.46 7.01 127.14 6.34 120.7 30.46 121.47 30.67"/></svg>